<?xml version="1.0" standalone="no"?>
<!DOCTYPE svg PUBLIC "-//W3C//DTD SVG 1.1//EN" "http://www.w3.org/Graphics/SVG/1.1/DTD/svg11.dtd" >
<svg xmlns="http://www.w3.org/2000/svg">
<metadata>
Created by FontForge 20120731 at Fri Jun 23 19:06:18 2017
 By admin
</metadata>
<defs>
<font id="iconfont" horiz-adv-x="1024" >
  <font-face 
    font-family="iconfont"
    font-weight="500"
    font-stretch="normal"
    units-per-em="1024"
    panose-1="2 0 6 3 0 0 0 0 0 0"
    ascent="896"
    descent="-128"
    x-height="792"
    bbox="-0.407407 -128 1026 896"
    underline-thickness="0"
    underline-position="0"
    unicode-range="U+0078-E633"
  />
<missing-glyph 
 />
    <glyph glyph-name=".notdef" 
 />
    <glyph glyph-name=".notdef" 
 />
    <glyph glyph-name=".null" horiz-adv-x="0" 
 />
    <glyph glyph-name="nonmarkingreturn" horiz-adv-x="341" 
 />
    <glyph glyph-name="x" unicode="x" horiz-adv-x="1001" 
d="M281 543q-27 -1 -53 -1h-83q-18 0 -36.5 -6t-32.5 -18.5t-23 -32t-9 -45.5v-76h912v41q0 16 -0.5 30t-0.5 18q0 13 -5 29t-17 29.5t-31.5 22.5t-49.5 9h-133v-97h-438v97zM955 310v-52q0 -23 0.5 -52t0.5 -58t-10.5 -47.5t-26 -30t-33 -16t-31.5 -4.5q-14 -1 -29.5 -0.5
t-29.5 0.5h-32l-45 128h-439l-44 -128h-29h-34q-20 0 -45 1q-25 0 -41 9.5t-25.5 23t-13.5 29.5t-4 30v167h911zM163 247q-12 0 -21 -8.5t-9 -21.5t9 -21.5t21 -8.5q13 0 22 8.5t9 21.5t-9 21.5t-22 8.5zM316 123q-8 -26 -14 -48q-5 -19 -10.5 -37t-7.5 -25t-3 -15t1 -14.5
t9.5 -10.5t21.5 -4h37h67h81h80h64h36q23 0 34 12t2 38q-5 13 -9.5 30.5t-9.5 34.5q-5 19 -11 39h-368zM336 498v228q0 11 2.5 23t10 21.5t20.5 15.5t34 6h188q31 0 51.5 -14.5t20.5 -52.5v-227h-327z" />
    <glyph glyph-name="zhuye" unicode="&#xe602;" 
d="M981 394q-14 0 -26 9l-416 321q-11 9 -26 9t-26 -9l-416 -321q-14 -11 -31.5 -9t-28.5 16t-8.5 31.5t16.5 28.5l416 322q35 26 78.5 26t77.5 -26l417 -322q13 -11 15.5 -28.5t-8.5 -31.5q-13 -16 -34 -16zM810 -85h-594q-53 0 -91 37.5t-38 90.5v319q0 17 12.5 29.5
t30.5 12.5t30 -12.5t12 -29.5v-319q0 -18 13 -30.5t31 -12.5h594q18 0 31 12.5t13 30.5v319q0 17 12.5 29.5t30 12.5t30 -12.5t12.5 -29.5v-319q0 -53 -38 -90.5t-91 -37.5z" />
    <glyph glyph-name="xinxi" unicode="&#xe603;" 
d="M277 427zM213 426.5q0 -26.5 19 -45t45.5 -18.5t45 18.5t18.5 45t-18.5 45.5t-45 19t-45.5 -19t-19 -45.5zM345 -82q-8 0 -16 2q-21 7 -30 28l-39 95h-132q-53 0 -90.5 37.5t-37.5 90.5v511q0 53 37.5 91t90.5 38h768q53 0 90.5 -38t37.5 -91v-511q0 -53 -37.5 -90.5
t-90.5 -37.5h-330l-196 -118q-11 -7 -25 -7zM326 -2zM128 725q-17 0 -30 -12.5t-13 -30.5v-511q0 -18 13 -30.5t30 -12.5h188l46 -109l181 109h353q18 0 30.5 12.5t12.5 30.5v511q0 18 -12.5 30.5t-30.5 12.5h-768zM512 427zM448 426.5q0 -26.5 19 -45t45 -18.5t45 18.5
t19 45t-19 45.5t-45 19t-45 -19t-19 -45.5zM747 427zM683 426.5q0 -26.5 18.5 -45t45 -18.5t45.5 18.5t19 45t-19 45.5t-45.5 19t-45 -19t-18.5 -45.5z" />
    <glyph glyph-name="youjian" unicode="&#xe604;" horiz-adv-x="1025" 
d="M509 290q-44 0 -78 27l-395 333q-13 12 -14.5 29.5t10 31t29 15t31.5 -10.5l392 -332q11 -8 26 -8t27 9l396 332q13 11 31 9.5t29 -15t9.5 -31.5t-14.5 -29l-398 -332q-36 -28 -81 -28zM895 -43h-766q-53 0 -91 38t-38 92v552q0 53 38 91t91 38h766q53 0 91 -38t38 -91
v-552q0 -54 -38 -92t-91 -38zM129 683q-18 0 -31 -13t-13 -31v-552q0 -19 13 -31.5t31 -12.5h766q18 0 31 13t13 31v552q0 18 -13 31t-31 13h-766z" />
    <glyph glyph-name="sousuo" unicode="&#xe605;" 
d="M492.5 -22q-90.5 0 -173.5 35.5t-143 95.5t-95.5 143t-35.5 174t35.5 174t95.5 143t143 95.5t173.5 35.5t173.5 -35.5t143 -95.5t95.5 -143t35.5 -174t-35.5 -174t-95.5 -143t-143 -95.5t-173.5 -35.5zM492.5 789q-98.5 0 -182 -48.5t-132 -132t-48.5 -182t48.5 -182
t132 -132t182 -48.5t182 48.5t132 132t48.5 182t-48.5 182t-132 132t-182 48.5zM951 -75q-17 0 -30 13l-96 96q-13 12 -13 29.5t12.5 30t30.5 12.5t30 -12l96 -96q13 -13 13 -30.5t-13 -29.5q-12 -13 -30 -13z" />
    <glyph glyph-name="yonghu" unicode="&#xe606;" 
d="M512 235q-88 0 -150.5 62.5t-62.5 150.5t62.5 150.5t150.5 62.5t150.5 -62.5t62.5 -150.5t-62.5 -150.5t-150.5 -62.5zM512 576q-53 0 -90.5 -37.5t-37.5 -90.5t37.5 -90.5t90.5 -37.5t90.5 37.5t37.5 90.5t-37.5 90.5t-90.5 37.5zM837 33q-27 0 -38 24q-41 82 -118 130
t-169 48t-169 -48t-118 -130q-8 -16 -24.5 -21.5t-32.5 2t-21.5 24.5t2.5 33q52 104 149.5 164.5t213.5 60.5t213.5 -60.5t149.5 -164.5q8 -16 2.5 -33t-21.5 -24q-9 -5 -19 -5zM512 -107q-100 0 -190.5 39t-156.5 105t-105 156.5t-39 190.5t39 190.5t105 156.5t156.5 105
t190.5 39t190.5 -39t156.5 -105t105 -156.5t39 -190.5t-39 -190.5t-105 -156.5t-156.5 -105t-190.5 -39zM512 789q-110 0 -203.5 -54t-147.5 -147.5t-54 -203.5t54 -203.5t147.5 -147.5t203.5 -54t203.5 54t147.5 147.5t54 203.5t-54 203.5t-147.5 147.5t-203.5 54z" />
    <glyph glyph-name="qunzu" unicode="&#xe607;" 
d="M388.5 299q-101.5 0 -173 71.5t-71.5 173t71.5 173.5t173 72t173.5 -72t72 -173.5t-72 -173t-173.5 -71.5zM389 704q-66 0 -113 -47t-47 -113t47 -113t113 -47t113 47t47 113t-47 113t-113 47zM591 -85h-405q-57 0 -97.5 40.5t-40.5 97.5v94q0 98 69.5 167.5t167.5 69.5
h208q98 0 167.5 -69.5t69.5 -167.5v-93q0 -58 -40.5 -98.5t-98.5 -40.5zM284 299q-62 0 -106.5 -44.5t-44.5 -107.5v-93q0 -23 15.5 -38.5t37.5 -15.5h405q22 0 38 15.5t16 38.5v93q0 63 -44.5 107.5t-107.5 44.5h-209zM847 -43q-17 0 -30 12.5t-13 30.5t13 30.5t30 12.5
q22 0 38 15.5t16 37.5v94q0 62 -44.5 106.5t-107.5 44.5h-14q-15 0 -26.5 9.5t-15 24t3 28t19.5 19.5q41 21 65 59.5t24 83.5q0 66 -47 113t-113 47q-18 0 -30.5 12.5t-12.5 30.5t12.5 30.5t30.5 12.5q101 0 173 -72t72 -174q0 -87 -55 -154q67 -27 109 -87t42 -134v-94
q0 -57 -40.5 -98t-98.5 -41z" />
    <glyph glyph-name="bianji" unicode="&#xe608;" 
d="M823 -43h-594q-53 0 -91 38t-38 92v594q0 54 38 92t91 38h297q18 0 30.5 -12.5t12.5 -30.5t-12.5 -30.5t-30.5 -12.5h-297q-18 0 -31 -13t-13 -31v-594q0 -18 13 -31t31 -13h594q19 0 32 13t13 31v297q0 18 12.5 30.5t30 12.5t30 -12.5t12.5 -30.5v-297q0 -54 -38 -92
t-92 -38zM483 140h-5l-135 17q-14 1 -24.5 11.5t-12.5 25.5l-17 134q-2 21 13 36l374 374q39 39 93 39t93 -39l26 -26q38 -38 38 -92.5t-38 -93.5l-375 -374q-12 -12 -30 -12zM387 237l81 -10l359 360q14 13 14 32t-14 32l-26 27q-13 13 -32 13t-33 -13l-359 -360z" />
    <glyph glyph-name="yinliangguan" unicode="&#xe609;" 
d="M596 -85q-34 0 -65 18l-2 1l-111 75q-27 19 -56.5 33t-60.5 24q-31 9 -64 14q-32 5 -65 5q-27 0 -51 11q-23 9 -40.5 27t-27.5 41q-10 24 -10 50v339q0 27 10 51q10 23 27.5 41t40.5 28q25 10 51 10q33 0 65 4.5t63.5 14.5t60.5 24q30 14 57 33l113 76q31 18 67 18
q33 0 62.5 -17t46.5 -46q18 -30 18 -66v-170q0 -18 -12.5 -30.5t-30 -12.5t-30 12.5t-12.5 30.5v170q0 12 -6 22t-16 15.5t-21 6.5q-12 0 -22 -6l-109 -74q-33 -22 -67.5 -39t-72.5 -28q-37 -12 -76 -18t-78 -6q-9 0 -17 -3t-14 -9.5t-9 -13.5q-4 -9 -4 -18v-338
q0 -10 3.5 -17.5t9.5 -14t14 -9.5t17 -3q39 0 78 -6t76 -17.5t73 -28.5q35 -17 68 -39l109 -74q9 -5 21 -6q11 1 21 6.5t16 15.5t6 22v149q0 17 12.5 29.5t30 12.5t30.5 -12.5t13 -29.5v-149q0 -36 -19 -67q-17 -28 -46.5 -45t-62.5 -17h-2zM469 107q-17 0 -29.5 12.5
t-12.5 30t12 30.5l416 416q13 12 30.5 12t30 -12.5t12.5 -30t-13 -30.5l-416 -416q-12 -12 -30 -12z" />
    <glyph glyph-name="yinliangkai" unicode="&#xe60a;" 
d="M596 -85q-34 0 -65 18l-2 1l-111 76q-111 75 -246 75q-54 0 -91.5 38t-37.5 92v338q0 54 37.5 92t91.5 38q135 0 246 76l113 76q30 18 64.5 18t65 -17.5t47.5 -47t17 -64.5v-680q0 -35 -17 -64.5t-48 -47.5q-30 -17 -64 -17zM575 6q22 -12 43 0q22 13 22 38v680
q0 25 -22 38q-21 12 -43 0l-109 -74q-133 -91 -294 -91q-18 0 -31 -12.5t-13 -30.5v-339q0 -18 13 -31t31 -13q161 0 294 -91zM901 79q-13 0 -24 7q-14 10 -17.5 27.5t6.5 31.5q23 35 39.5 73t24.5 80q9 42 9 86t-9 86q-8 41 -25 80q-16 38 -39 72q-10 15 -6.5 32.5t18 27
t32 6.5t26.5 -18q28 -41 48 -87q19 -46 30 -96q10 -51 10 -103.5t-10 -102.5q-10 -49 -30 -96q-20 -46 -48 -87q-12 -19 -35 -19z" />
    <glyph glyph-name="kuaitui" unicode="&#xe60b;" 
d="M512 -128q-104 0 -199 40.5t-163.5 109t-109 163.5t-40.5 199t40.5 199t109 163.5t163.5 109t199 40.5t199 -40.5t163.5 -109t109 -163.5t40.5 -199t-40.5 -199t-109 -163.5t-163.5 -109t-199 -40.5zM512 811q-116 0 -214 -57.5t-155.5 -155.5t-57.5 -214t57.5 -214
t155.5 -155.5t214 -57.5t214 57.5t155.5 155.5t57.5 214t-57.5 214t-155.5 155.5t-214 57.5zM732 210q-13 0 -23 7l-205 131q-20 12 -20 35.5t20 36.5l205 131q21 13 43.5 1t22.5 -37v-262q0 -25 -23 -37q-9 -6 -20 -6zM606 384l83 -53v106zM519 210q-13 0 -23 7l-206 131
q-19 12 -19 35.5t19 36.5l206 131q21 13 43 1t22 -37v-262q0 -25 -22 -37q-10 -6 -20 -6zM393 384l83 -53v106zM292 224q-18 0 -30.5 12.5t-12.5 30.5v234q0 18 12.5 30.5t30.5 12.5t30.5 -12.5t12.5 -30.5v-234q0 -18 -12.5 -30.5t-30.5 -12.5z" />
    <glyph glyph-name="kuaijin" unicode="&#xe60c;" 
d="M512 -128q-104 0 -199 40.5t-163.5 109t-109 163.5t-40.5 199t40.5 199t109 163.5t163.5 109t199 40.5t199 -40.5t163.5 -109t109 -163.5t40.5 -199t-40.5 -199t-109 -163.5t-163.5 -109t-199 -40.5zM512 811q-116 0 -214 -57.5t-155.5 -155.5t-57.5 -214t57.5 -214
t155.5 -155.5t214 -57.5t214 57.5t155.5 155.5t57.5 214t-57.5 214t-155.5 155.5t-214 57.5zM292 210q-11 0 -20 6q-22 12 -22 37v262q0 25 22 37t43 -1l205 -131q20 -12 20 -35.5t-20 -36.5l-205 -131q-11 -7 -23 -7zM335 437v-106l83 53zM505 210q-10 0 -20 6
q-22 12 -22 37v262q0 25 22 37t43 -1l206 -131q19 -12 19 -35.5t-19 -36.5l-206 -131q-10 -7 -23 -7zM548 437v-106l83 53zM732 224q-18 0 -30.5 12.5t-12.5 30.5v234q0 18 12.5 30.5t30.5 12.5t30.5 -12.5t12.5 -30.5v-234q0 -18 -12.5 -30.5t-30.5 -12.5z" />
    <glyph glyph-name="tingzhi" unicode="&#xe60d;" 
d="M512 -128q-104 0 -199 40.5t-163.5 109t-109 163.5t-40.5 199t40.5 199t109 163.5t163.5 109t199 40.5t199 -40.5t163.5 -109t109 -163.5t40.5 -199t-40.5 -199t-109 -163.5t-163.5 -109t-199 -40.5zM512 811q-116 0 -214 -57.5t-155.5 -155.5t-57.5 -214t57.5 -214
t155.5 -155.5t214 -57.5t214 57.5t155.5 155.5t57.5 214t-57.5 214t-155.5 155.5t-214 57.5zM640 213h-256q-18 0 -30.5 12.5t-12.5 30.5v256q0 18 12.5 30.5t30.5 12.5h256q18 0 30.5 -12.5t12.5 -30.5v-256q0 -18 -12.5 -30.5t-30.5 -12.5zM427 299h170v170h-170v-170z
" />
    <glyph glyph-name="zanting" unicode="&#xe60e;" 
d="M511.5 -127q-103.5 0 -198.5 40.5t-163.5 109t-109 163.5t-40.5 198.5t40.5 198.5t109 163.5t163.5 109t198.5 40.5t198.5 -40.5t163.5 -109t109 -163.5t40.5 -198.5t-40.5 -198.5t-109 -163.5t-163.5 -109t-198.5 -40.5zM511.5 811q-115.5 0 -214 -57t-155.5 -155.5
t-57 -214t57 -214t155.5 -155.5t214 -57t214 57t155.5 155.5t57 214t-57 214t-155.5 155.5t-214 57zM394.5 214q-17.5 0 -30 12.5t-12.5 30.5v255q0 18 12.5 30.5t30 12.5t30 -12.5t12.5 -30.5v-255q0 -18 -12.5 -30.5t-30 -12.5zM628.5 214q-17.5 0 -30 12.5t-12.5 30.5
v255q0 18 12.5 30.5t30 12.5t30 -12.5t12.5 -30.5v-255q0 -18 -12.5 -30.5t-30 -12.5z" />
    <glyph glyph-name="naozhong" unicode="&#xe60f;" 
d="M512 0q-110 0 -203.5 54.5t-147.5 147.5t-54 203t54 203.5t147.5 148t203.5 54.5t203.5 -54.5t147.5 -148t54 -203.5t-54 -203t-147.5 -147.5t-203.5 -54.5zM512 725q-87 0 -160.5 -42.5t-116.5 -116.5t-43 -160.5t43 -160.5t116.5 -117t160.5 -43t160.5 43t116.5 117
t43 160.5t-43 160.5t-116.5 116.5t-160.5 42.5zM923 646q-23 0 -36 19q-23 35 -52 63q-29 30 -63 52q-15 10 -18 27.5t6.5 32t27 18t32.5 -6.5q40 -27 75 -62t63 -76q10 -15 6.5 -32t-18.5 -27q-10 -8 -23 -8zM101 646q-13 0 -23 8q-15 10 -18.5 27t6.5 32q28 41 63 76
q34 34 75 62q15 10 32.5 6.5t27.5 -18t6.5 -32t-18.5 -27.5q-34 -23 -63 -52t-52 -63q-13 -19 -36 -19zM139 -75q-14 0 -25 8q-15 10 -17.5 27.5t7.5 32.5l53 74q10 15 27.5 18t32 -7.5t17.5 -28t-7 -31.5l-54 -75q-12 -18 -34 -18zM885 -75q-22 0 -34 18l-54 75
q-10 14 -7 31.5t17.5 28t31.5 7.5t28 -17l53 -75q10 -15 7 -32t-17 -28q-11 -8 -25 -8zM512 341q-11 0 -21 6q-22 12 -22 37v128q0 18 12.5 30.5t30.5 12.5t30.5 -12.5t12.5 -30.5v-53l42 26q15 9 32 4.5t26 -19.5t5 -32t-19 -26l-107 -64q-10 -7 -22 -7z" />
    <glyph glyph-name="xihuan" unicode="&#xe610;" horiz-adv-x="1025" 
d="M513 -81q-39 0 -72 21q-41 21 -91.5 54t-114 88t-114.5 116t-86 140t-35 158q0 92 46 171t124.5 124.5t171.5 45.5q92 0 171 -45q79 45 171 45t171 -45.5t125 -124.5t46 -171q0 -79 -35 -158t-86 -140t-115 -116t-114.5 -88t-91.5 -54q-32 -21 -71 -21zM342 752
q-106 0 -181.5 -75t-75.5 -181q0 -142 149 -296q59 -61 127 -110t121 -74l6 -4q25 -18 50 0l6 4q53 25 121 74t127 110q148 154 148 296q0 106 -75 181t-181 75q-81 0 -147 -46l-24 -17l-25 17q-66 46 -146 46z" />
    <glyph glyph-name="zihao" unicode="&#xe611;" 
d="M809 -128h-594q-54 0 -92 38t-38 91v766q0 53 38 91t92 38h594q54 0 92 -38t38 -91v-766q0 -53 -38 -91t-92 -38zM215 811q-19 0 -31.5 -13t-12.5 -31v-766q0 -18 13 -31t31 -13h594q19 0 31.5 13t12.5 31v766q0 18 -13 31t-31 13h-594v0zM725.5 512q-17.5 0 -30 12.5
t-12.5 30.5v21h-342v-21q0 -18 -12.5 -30.5t-30 -12.5t-30 12.5t-12.5 30.5v64q0 17 12.5 29.5t30.5 12.5h426q18 0 30.5 -12.5t12.5 -29.5v-64q0 -18 -12.5 -30.5t-30 -12.5zM512 107q-18 0 -30.5 12.5t-12.5 29.5v470q0 17 12.5 29.5t30.5 12.5t30.5 -12.5t12.5 -29.5
v-470q0 -17 -12.5 -29.5t-30.5 -12.5zM619 107h-214q-17 0 -29.5 12.5t-12.5 30t12.5 30t29.5 12.5h214q17 0 29.5 -12.5t12.5 -30t-12.5 -30t-29.5 -12.5z" />
    <glyph glyph-name="jishiben" unicode="&#xe612;" 
d="M892 -43h-760q-27 0 -52 11q-23 10 -41 28q-19 18 -29 42q-10 25 -10 51v590q0 27 10 51t28.5 42t42.5 28q24 11 51 11h83q18 0 30.5 -12.5t12.5 -30.5t-12.5 -30.5t-30.5 -12.5h-83q-10 0 -18.5 -3.5t-14.5 -10t-10 -15t-4 -17.5v-590q0 -9 4 -18q3 -8 10 -15
q7 -6 15 -10q9 -3 18 -3h760q10 0 18.5 3.5t14.5 10t10 15t4 17.5v590q0 9 -4 18q-3 8 -10 15q-7 6 -15 10q-9 3 -18 3h-83q-18 0 -30.5 12.5t-12.5 30.5t12.5 30.5t30.5 12.5h83q27 0 52 -11q23 -10 41 -28q19 -18 29 -42t10 -51v-590q0 -27 -10 -51t-28.5 -42t-41.5 -28
q-25 -11 -52 -11zM230 181q-10 0 -18 4q-16 8 -22 24.5t1 32.5l277 587q7 16 23.5 22t32.5 -1.5t22 -24.5t-1 -32l-277 -587q-11 -25 -38 -25zM811 448h-171q-18 0 -30.5 12.5t-12.5 30t12.5 30t30.5 12.5h171q17 0 29.5 -12.5t12.5 -30t-12.5 -30t-29.5 -12.5zM811 192
h-384q-18 0 -30.5 12.5t-12.5 30t12.5 30t30.5 12.5h384q17 0 29.5 -12.5t12.5 -30t-12.5 -30t-29.5 -12.5z" />
    <glyph glyph-name="rili" unicode="&#xe613;" 
d="M892 -43h-760q-27 0 -52 11q-23 10 -41 28q-19 18 -29 42q-10 25 -10 51v590q0 27 10 51t28.5 42t42.5 28q24 11 51 11h83q18 0 30.5 -12.5t12.5 -30.5t-12.5 -30.5t-30.5 -12.5h-83q-10 0 -18.5 -3.5t-14.5 -10t-10 -15t-4 -17.5v-590q0 -9 4 -18q3 -8 10 -15
q7 -6 15 -10q9 -3 18 -3h760q10 0 18.5 3.5t14.5 10t10 15t4 17.5v590q0 9 -4 18q-3 8 -10 15q-7 6 -15 10q-9 3 -18 3h-83q-18 0 -30.5 12.5t-12.5 30.5t12.5 30.5t30.5 12.5h83q27 0 52 -11q23 -10 41 -28q19 -18 29 -42t10 -51v-590q0 -27 -10 -51t-28.5 -42t-41.5 -28
q-25 -11 -52 -11zM341.5 619q-17.5 0 -30 12.5t-12.5 29.5v150q0 17 12.5 29.5t30 12.5t30 -12.5t12.5 -29.5v-150q0 -17 -12.5 -29.5t-30 -12.5zM682.5 619q-17.5 0 -30 12.5t-12.5 29.5v150q0 17 12.5 29.5t30 12.5t30 -12.5t12.5 -29.5v-150q0 -17 -12.5 -29.5t-30 -12.5
zM811 405h-598q-17 0 -29.5 12.5t-12.5 30.5t12.5 30.5t29.5 12.5h598q17 0 29.5 -12.5t12.5 -30.5t-12.5 -30.5t-29.5 -12.5zM811 192h-598q-17 0 -29.5 12.5t-12.5 30t12.5 30t29.5 12.5h598q17 0 29.5 -12.5t12.5 -30t-12.5 -30t-29.5 -12.5z" />
    <glyph glyph-name="bofang" unicode="&#xe614;" 
d="M512 -128q-104 0 -199 40.5t-163.5 109t-109 163.5t-40.5 199t40.5 199t109 163.5t163.5 109t199 40.5t199 -40.5t163.5 -109t109 -163.5t40.5 -199t-40.5 -199t-109 -163.5t-163.5 -109t-199 -40.5zM512 811q-116 0 -214 -57.5t-155.5 -155.5t-57.5 -214t57.5 -214
t155.5 -155.5t214 -57.5t214 57.5t155.5 155.5t57.5 214t-57.5 214t-155.5 155.5t-214 57.5zM435 208q-12 0 -21 6q-22 12 -22 36v262q0 25 21.5 37t42.5 0l227 -131q21 -12 21 -36.5t-21 -37.5l-227 -130q-10 -6 -21 -6zM478 438v-114l98 57z" />
    <glyph glyph-name="gengduo" unicode="&#xe615;" 
d="M512 -128q-104 0 -199 40.5t-163.5 109t-109 163.5t-40.5 199t40.5 199t109 163.5t163.5 109t199 40.5t199 -40.5t163.5 -109t109 -163.5t40.5 -199t-40.5 -199t-109 -163.5t-163.5 -109t-199 -40.5zM512 811q-116 0 -214 -57.5t-155.5 -155.5t-57.5 -214t57.5 -214
t155.5 -155.5t214 -57.5t214 57.5t155.5 155.5t57.5 214t-57.5 214t-155.5 155.5t-214 57.5zM469.5 192q-17.5 0 -30 12.5t-12.5 30t12 30.5l119 119l-119 119q-12 13 -12 30.5t12.5 30t30 12.5t30.5 -12l149 -150q12 -12 12 -30t-12 -30l-149 -150q-13 -12 -30.5 -12z" />
    <glyph glyph-name="dianzan" unicode="&#xe616;" 
d="M192 -43h-104q-36 0 -62 26t-26 62v464q0 37 26 62.5t62 25.5h125q18 0 31 -13t12 -31l-21 -555q-1 -17 -13.5 -29t-29.5 -12zM88 512q-3 0 -3 -3v-464q0 -2 3 -2h63l18 469h-81zM810 -43h-534l24 640h118l72 202q16 44 53.5 70.5t84.5 26.5q66 0 109.5 -50.5
t34.5 -116.5l-19 -132h143q53 0 90.5 -37.5t37.5 -90.5l-1 -9l-85 -380q-1 -51 -38.5 -87t-89.5 -36zM364 43h446q18 0 30.5 12.5t12.5 30.5l1 9l84 378q-1 16 -13.5 27.5t-28.5 11.5h-241l33 229q3 28 -15 49t-46 21q-19 0 -34.5 -11.5t-22.5 -29.5l-92 -258h-96z" />
    <glyph glyph-name="daohang" unicode="&#xe617;" 
d="M512 -128q-104 0 -199 40.5t-163.5 109.5t-109 163.5t-40.5 198.5t40.5 199t109 163.5t163.5 109t199 40.5t198.5 -40.5t163 -109t109.5 -163.5t41 -199t-41 -198.5t-109.5 -163t-163 -109.5t-198.5 -41zM511.5 811q-115.5 0 -213.5 -57.5t-155.5 -155.5t-57.5 -213.5
t57.5 -214t155.5 -155.5t213.5 -57t214 57t155.5 155.5t57 214t-57 213.5t-155.5 155.5t-214 57.5zM293 122q-18 0 -31 13q-19 19 -9 45l97 263q27 76 103 103l263 97q26 10 45.5 -9.5t9.5 -44.5l-97 -264q-28 -75 -103 -103l-264 -97q-7 -3 -14 -3zM659 532l-177 -66
q-38 -14 -52 -52l-65 -177l176 65q39 14 53 53zM556 262v0v0z" />
    <glyph glyph-name="liebiaocaidan" unicode="&#xe618;" 
d="M809 -128h-594q-54 0 -92 38t-38 91v766q0 53 38 91t92 38h594q54 0 92 -38t38 -91v-766q0 -53 -38 -91t-92 -38zM215 811q-19 0 -31.5 -13t-12.5 -31v-766q0 -18 13 -31t31 -13h594q19 0 31.5 13t12.5 31v766q0 18 -13 31t-31 13h-594v0zM427 -128h-214
q-53 0 -90.5 37.5t-37.5 90.5v213h214q53 0 90.5 -37.5t37.5 -90.5v-213zM171 128v-128q0 -18 12.5 -30.5t29.5 -12.5h128v128q0 18 -12.5 30.5t-29.5 12.5h-128zM811 -128h-214v213q0 53 37.5 90.5t90.5 37.5h214v-213q0 -53 -37.5 -90.5t-90.5 -37.5zM683 -43h128
q17 0 29.5 12.5t12.5 30.5v128h-128q-17 0 -29.5 -12.5t-12.5 -30.5v-128zM448 540h-171q-17 0 -29.5 12.5t-12.5 30.5t12.5 30.5t29.5 12.5h171q18 0 30.5 -12.5t12.5 -30.5t-12.5 -30.5t-30.5 -12.5zM661 363h-384q-17 0 -29.5 12.5t-12.5 30t12.5 30t29.5 12.5h384
q18 0 30.5 -12.5t12.5 -30t-12.5 -30t-30.5 -12.5z" />
    <glyph glyph-name="xiangji" unicode="&#xe619;" 
d="M900 -43h-776q-51 0 -87.5 36.5t-36.5 87.5v542q0 51 36.5 87.5t87.5 36.5h69l85 106h468l85 -106h69q51 0 87.5 -36.5t36.5 -87.5v-541q0 -52 -36.5 -88.5t-87.5 -36.5zM124 661q-16 0 -27.5 -11t-11.5 -28v-541q0 -16 11.5 -27t27.5 -11h776q16 0 27.5 11t11.5 27v542
q0 16 -11.5 27t-27.5 11h-110l-85 107h-386l-85 -107h-110zM512 128q-88 0 -150.5 62.5t-62.5 151t62.5 151t150.5 62.5t150.5 -62.5t62.5 -151t-62.5 -151t-150.5 -62.5zM512 469q-53 0 -90.5 -37.5t-37.5 -90.5t37.5 -90.5t90.5 -37.5t90.5 37.5t37.5 90.5t-37.5 90.5
t-90.5 37.5zM811 555zM768 554.5q0 -17.5 12.5 -30t30 -12.5t30 12.5t12.5 30t-12.5 30t-30 12.5t-30 -12.5t-12.5 -30z" />
    <glyph glyph-name="shoucang" unicode="&#xe61a;" 
d="M814 -120q-30 0 -57 13l-226 114q-19 9 -38 0l-226 -114q-59 -30 -118 2q-56 30 -63 91q-1 8 -1 15v766q0 53 38 91t92 38h594q54 0 92 -38t38 -91v-766q0 -7 -1 -15q-7 -61 -63 -91q-28 -15 -61 -15zM512 96q30 0 57 -13l226 -114q20 -10 40 1q16 9 18 26v5v766
q0 18 -12.5 31t-31.5 13h-594q-19 0 -31.5 -13t-12.5 -31v-766v-5q2 -17 18 -26q20 -11 40 -1l226 114q26 13 57 13zM598 305q-11 0 -20 5l-66 27l-66 -28q-27 -11 -50 6t-21 46l6 71l-46 54q-19 22 -10 49.5t37 34.5l69 16l37 61q15 25 44 25t44 -25l37 -61l69 -16
q29 -7 38 -34.5t-10 -49.5l-47 -54l6 -71q3 -29 -21 -46q-14 -10 -30 -10zM499 343zM525 343zM564 354zM460 354zM512 425q10 0 20 -4l27 -11l-2 29q-2 22 12 38l19 23l-28 6q-22 5 -33 24l-15 25l-15 -25q-11 -19 -32 -24l-29 -6l19 -23q14 -16 12 -38l-2 -29l27 11
q10 4 20 4zM390 421h1h-1zM634 422v-1v1zM600 574h1h-1z" />
    <glyph glyph-name="dayinji" unicode="&#xe61b;" 
d="M903 0h-135v128h-512v-128h-135q-50 0 -85.5 35.5t-35.5 85.5v440q0 50 35.5 86t85.5 36h782q50 0 85.5 -36t35.5 -86v-440q0 -50 -35.5 -85.5t-85.5 -35.5v0zM853 85h50q15 0 25.5 10.5t10.5 25.5v440q0 15 -11 25.5t-25 10.5h-782q-15 0 -25.5 -10.5t-10.5 -25.5v-440
q0 -15 10.5 -25.5t25.5 -10.5h50v48q0 33 23.5 56.5t56.5 23.5h521q34 0 57.5 -23.5t23.5 -56.5v-48v0zM840 597h-656q-32 0 -54.5 23t-22.5 55v58q0 32 22.5 55t54.5 23h656q32 0 54.5 -23t22.5 -55v-58q0 -32 -22.5 -55t-54.5 -23zM192 683h640v42h-640v-42zM288 437h-96
q-18 0 -30.5 12.5t-12.5 30.5t12.5 30.5t30.5 12.5h96q18 0 30.5 -12.5t12.5 -30.5t-12.5 -30.5t-30.5 -12.5zM767 -85h-510q-36 0 -61 25t-25 61v126q0 36 25 61t61 25h510q36 0 61 -25t25 -61v-126q0 -36 -25 -61t-61 -25zM257 128l-1 -127l511 -1q1 0 1 1v126z" />
    <glyph glyph-name="wenjianjia" unicode="&#xe61c;" 
d="M887 -85h-750q-57 0 -97 40t-40 96v666q0 56 40 96t97 40h184q40 0 66 -31l81 -97h427q53 0 91 -37.5t38 -91.5v-545q0 -56 -40 -96t-97 -40zM137 768q-22 0 -37 -15t-15 -36v-666q0 -21 15 -36t37 -15h750q22 0 37 15t15 36v545q0 19 -13 31.5t-31 12.5h-427
q-40 0 -66 31l-81 97h-184zM971 437h-523q-18 0 -30.5 12.5t-12.5 30.5t12.5 30.5t30.5 12.5h523q17 0 29.5 -12.5t12.5 -30.5t-12.5 -30.5t-29.5 -12.5z" />
    <glyph glyph-name="guanji" unicode="&#xe61d;" 
d="M512 -93q-92 0 -176.5 34.5t-149.5 100t-100 149.5t-35 176.5t35 176.5t100 150q13 12 31 12t30.5 -12.5t12.5 -30.5t-12 -31q-53 -53 -81.5 -121.5t-28.5 -143t28.5 -143t81.5 -121.5t121 -81t143 -28t143 28t121 81t81.5 121.5t28.5 143.5t-28.5 143t-81.5 121
q-12 13 -12 31t12.5 30.5t30.5 12.5t31 -12q65 -66 100 -150t35 -176.5t-35 -176.5t-100 -149.5t-149.5 -100t-176.5 -34.5zM512 341q-18 0 -30.5 12.5t-12.5 30.5v427q0 17 12.5 29.5t30.5 12.5t30.5 -12.5t12.5 -29.5v-427q0 -18 -12.5 -30.5t-30.5 -12.5z" />
    <glyph glyph-name="guanbi" unicode="&#xe61e;" 
d="M512 -128q-104 0 -199 40.5t-163.5 109t-109 163.5t-40.5 199t40.5 199t109 163.5t163.5 109t199 40.5t199 -40.5t163.5 -109t109 -163.5t40.5 -199t-40.5 -199t-109 -163.5t-163.5 -109t-199 -40.5zM512 811q-116 0 -214 -57.5t-155.5 -155.5t-57.5 -214t57.5 -214
t155.5 -155.5t214 -57.5t214 57.5t155.5 155.5t57.5 214t-57.5 214t-155.5 155.5t-214 57.5zM632.5 221q-17.5 0 -30.5 12l-241 241q-12 13 -12 30.5t12.5 30t30 12.5t29.5 -12l242 -242q12 -12 12 -29.5t-12.5 -30t-30 -12.5zM391.5 221q-17.5 0 -30 12.5t-12.5 30t12 30.5
l241 241q13 12 30.5 12t30 -12.5t12.5 -30t-12 -29.5l-241 -242q-13 -12 -30.5 -12z" />
    <glyph glyph-name="tianjia" unicode="&#xe61f;" 
d="M512 -128q-104 0 -199 40.5t-163.5 109t-109 163.5t-40.5 199t40.5 199t109 163.5t163.5 109t199 40.5t199 -40.5t163.5 -109t109 -163.5t40.5 -199t-40.5 -199t-109 -163.5t-163.5 -109t-199 -40.5zM512 811q-116 0 -214 -57.5t-155.5 -155.5t-57.5 -214t57.5 -214
t155.5 -155.5t214 -57.5t214 57.5t155.5 155.5t57.5 214t-57.5 214t-155.5 155.5t-214 57.5zM683 341h-342q-17 0 -29.5 12.5t-12.5 30.5t12.5 30.5t29.5 12.5h342q17 0 29.5 -12.5t12.5 -30.5t-12.5 -30.5t-29.5 -12.5zM512 171q-18 0 -30.5 12.5t-12.5 29.5v342
q0 17 12.5 29.5t30.5 12.5t30.5 -12.5t12.5 -29.5v-342q0 -17 -12.5 -29.5t-30.5 -12.5z" />
    <glyph glyph-name="tuichu" unicode="&#xe620;" 
d="M811 -43h-598q-26 0 -50 10q-23 10 -40.5 28t-27.5 41t-10 49v598q0 26 10 49q10 24 28 41q17 18 41 28q23 10 49 10h598q26 0 50 -10q23 -10 40.5 -28t27.5 -41t10 -49v-107q0 -18 -12.5 -30.5t-30.5 -12.5t-30.5 12.5t-12.5 30.5v107q0 9 -3 16q-3 8 -9 14t-14 9t-16 3
h-598q-8 0 -16 -3t-14 -9t-9 -14q-4 -8 -4 -16v-598q0 -9 4 -16q3 -8 9 -14t13.5 -9t16.5 -3h597q9 0 17 3.5t14 8.5q6 6 9 14t3 16v107q0 18 12.5 30.5t30.5 12.5t30.5 -12.5t12.5 -30.5v-107q0 -26 -10 -49q-10 -24 -28 -41q-17 -18 -41 -28q-23 -10 -49 -10zM768 213
q-18 0 -30.5 12.5t-12.5 30.5t13 30l98 98l-98 98q-13 12 -13 30t12.5 30.5t30.5 12.5t30 -13l128 -128q13 -13 13 -30.5t-13 -29.5l-128 -128q-12 -13 -30 -13zM896 341h-384q-18 0 -30.5 12.5t-12.5 30.5t12.5 30.5t30.5 12.5h384q18 0 30.5 -12.5t12.5 -30.5t-12.5 -30.5
t-30.5 -12.5z" />
    <glyph glyph-name="xiazai" unicode="&#xe621;" 
d="M768 85q-18 0 -30.5 12.5t-12.5 30.5t12.5 30.5t30.5 12.5q71 0 121 50t50 120q0 68 -46.5 117t-113.5 54l-25 1l-11 23q-31 67 -94 107t-137 40t-137 -40t-94 -107l-11 -23l-25 -2q-67 -4 -113.5 -53t-46.5 -117q0 -70 50.5 -120t120.5 -50q18 0 30.5 -12.5t12.5 -30.5
t-12.5 -30.5t-30.5 -12.5q-106 0 -181 75t-75 181q0 94 61.5 166t153.5 87q45 80 125 127t172 47t172 -47t125 -127q92 -15 153.5 -87t61.5 -166q0 -106 -75 -181t-181 -75zM512 -43q-18 0 -30 13l-128 128q-13 12 -13 30t12.5 30.5t30.5 12.5t30 -13l98 -98l98 98
q12 13 30 13t30.5 -12.5t12.5 -30.5t-13 -30l-128 -128q-12 -13 -30 -13zM512 -43q-18 0 -30.5 12.5t-12.5 30.5v299q0 17 12.5 29.5t30.5 12.5t30.5 -12.5t12.5 -29.5v-299q0 -18 -12.5 -30.5t-30.5 -12.5z" />
    <glyph glyph-name="shangchuan" unicode="&#xe622;" 
d="M768 85q-18 0 -30.5 12.5t-12.5 30.5t12.5 30.5t30.5 12.5q71 0 121 50t50 120q0 68 -46.5 117t-113.5 54l-25 1l-11 23q-31 67 -94 107t-137 40t-137 -40t-94 -107l-11 -23l-25 -2q-67 -4 -113.5 -53t-46.5 -117q0 -70 50.5 -120t120.5 -50q18 0 30.5 -12.5t12.5 -30.5
t-12.5 -30.5t-30.5 -12.5q-106 0 -181 75t-75 181q0 94 61.5 166t153.5 87q45 80 125 127t172 47t172 -47t125 -127q92 -15 153.5 -87t61.5 -166q0 -106 -75 -181t-181 -75zM640 107q-18 0 -30 12l-98 98l-98 -98q-12 -12 -30 -12t-30.5 12.5t-12.5 30t13 30.5l128 128
q12 12 30 12t30 -12l128 -128q13 -13 13 -30.5t-12.5 -30t-30.5 -12.5zM512 -64q-18 0 -30.5 12.5t-12.5 30.5v298q0 18 12.5 30.5t30.5 12.5t30.5 -12.5t12.5 -30.5v-298q0 -18 -12.5 -30.5t-30.5 -12.5z" />
    <glyph glyph-name="yulan" unicode="&#xe623;" 
d="M512 -29q-86 0 -160.5 23t-124.5 56t-92 79.5t-64.5 84.5t-40.5 80.5t-22 57t-6 24.5l-2 8l2 8q1 8 6 24.5t22 57t40.5 80t65 85t91.5 79t124.5 56.5t160.5 23t160.5 -23t124.5 -56.5t91.5 -79t65 -85t40.5 -80t22 -57t6 -24.5l2 -9l-2 -9l-8 -24t-24.5 -57.5t-43 -79
t-67 -84.5t-92 -79t-122 -56.5t-153.5 -22.5zM81 384q4 -16 10.5 -35t23 -53.5t37.5 -65.5t56 -65t76.5 -58.5t101 -40.5t126.5 -16q64 0 121 16t97.5 40.5t76 58.5t57.5 64.5t40.5 65t26 54t12.5 36.5q-4 17 -11 36.5t-24 53.5t-38 64.5t-56 64.5t-76 58t-100 40t-126 16
q-68 0 -127 -16t-100.5 -40.5t-76.5 -58.5t-56 -64.5t-37.5 -65t-23 -53.5t-10.5 -36zM512 187q-81 0 -139 58t-58 139t58 139t139 58q16 0 27.5 -11.5t11.5 -28t-11.5 -28t-27.5 -11.5q-49 0 -83.5 -34.5t-34.5 -83.5t34.5 -83.5t83.5 -34.5t83.5 34.5t34.5 83.5
q0 38 -22 68q-10 14 -7 30t16 25.5t29 7t26 -16.5q36 -51 36 -114q0 -81 -57.5 -139t-138.5 -58z" />
    <glyph glyph-name="xingbiao" unicode="&#xe624;" 
d="M761 -47q-13 0 -26 6l-221 93l-221 -93q-35 -15 -66 7.5t-28 60.5l21 239l-157 181q-25 29 -13.5 65t49.5 45l233 55l124 205q20 32 58 32t58 -32l124 -205l233 -55q37 -9 49 -45t-13 -65l-157 -181l21 -239q3 -38 -28 -61q-18 -13 -40 -13zM146 481l143 -165
q19 -22 16 -50l-18 -218l201 85q26 11 52 0l201 -85l-18 218q-3 28 16 50l143 165l-213 49q-27 7 -42 31l-113 187l-113 -187q-14 -24 -42 -31zM700 605v0v0z" />
    <glyph glyph-name="gengxin" unicode="&#xe625;" 
d="M768 85h-256q-18 0 -30.5 12.5t-12.5 30.5t12.5 30.5t30.5 12.5h256q71 0 121 50t50 120q0 68 -46.5 117t-113.5 54l-25 1l-11 23q-31 67 -94 107t-137 40t-137 -40t-94 -107l-11 -23l-25 -2q-67 -4 -113.5 -53t-46.5 -117q0 -70 50.5 -120t120.5 -50q18 0 30.5 -12.5
t12.5 -30.5t-12.5 -30.5t-30.5 -12.5q-106 0 -181 75t-75 181q0 94 61.5 166t153.5 87q45 80 125 127t172 47t172 -47t125 -127q92 -15 153.5 -87t61.5 -166q0 -106 -75 -181t-181 -75zM554.5 -43q-17.5 0 -30.5 13l-128 128q-12 12 -12 30t12 30l128 128q13 13 30.5 13
t30 -12.5t12.5 -30.5t-12 -30l-98 -98l98 -98q12 -12 12 -30t-12.5 -30.5t-30 -12.5z" />
    <glyph glyph-name="shangdian" unicode="&#xe626;" 
d="M810 -85h-596q-53 0 -91 37.5t-38 90.5v277q0 18 12.5 30.5t30.5 12.5t30.5 -12.5t12.5 -30.5v-277q0 -18 12.5 -30.5t30.5 -12.5h596q18 0 30.5 12.5t12.5 30.5v277q0 18 12.5 30.5t30.5 12.5t30.5 -12.5t12.5 -30.5v-277q0 -53 -38 -90.5t-91 -37.5zM768 384
q-71 0 -128 43q-57 -43 -128 -43t-128 43q-57 -43 -128 -43q-88 0 -150.5 62.5t-62.5 151t62.5 151t150.5 62.5h512q88 0 150.5 -62.5t62.5 -151t-62.5 -151t-150.5 -62.5zM640 549l32 -36q38 -44 96 -44q53 0 90.5 37.5t37.5 90.5t-37.5 90.5t-90.5 37.5h-512
q-53 0 -90.5 -37.5t-37.5 -90.5t37.5 -90.5t90.5 -37.5q58 0 96 44l32 36l32 -36q38 -44 96 -44t96 44zM384 471q-18 0 -30.5 12.5t-12.5 29.5v42q0 17 12.5 29.5t30.5 12.5t30.5 -12.5t12.5 -29.5v-42q0 -17 -12.5 -29.5t-30.5 -12.5zM640 471q-18 0 -30.5 12.5t-12.5 29.5
v42q0 17 12.5 29.5t30.5 12.5t30.5 -12.5t12.5 -29.5v-42q0 -17 -12.5 -29.5t-30.5 -12.5zM725.5 107q-17.5 0 -30 12.5t-12.5 29.5v64q0 18 12.5 30.5t30 12.5t30 -12.5t12.5 -30.5v-64q0 -17 -12.5 -29.5t-30 -12.5z" />
    <glyph glyph-name="tixing" unicode="&#xe627;" 
d="M512 768q-18 0 -30.5 12.5t-12.5 30.5v42q0 18 12.5 30.5t30.5 12.5t30.5 -12.5t12.5 -30.5v-42q0 -18 -12.5 -30.5t-30.5 -12.5zM512 -128q-93 0 -180 31q-17 6 -24.5 22t-1.5 32.5t22 24t33 1.5q74 -26 154 -25.5t153 27.5q17 6 33 -1t22 -23.5t-1.5 -32.5t-23.5 -23
q-90 -33 -186 -33zM845 21h-666q-56 0 -96 40t-40 97v4q0 43 23.5 77t61.5 49v181q0 104 51.5 192.5t140 140t192.5 51.5t192.5 -51.5t140 -140t51.5 -192.5v-181q38 -15 61.5 -49t23.5 -77v-4q0 -57 -40 -97t-96 -40zM512 768q-124 0 -211.5 -87.5t-87.5 -211.5v-253
l-39 -3q-19 -2 -32.5 -16.5t-13.5 -34.5v-4q0 -21 15 -36t36 -15h666q21 0 36 15t15 36v4q0 20 -13.5 34.5t-33.5 16.5l-39 3v253q1 124 -86.5 211.5t-211.5 87.5z" />
    <glyph glyph-name="lishi" unicode="&#xe628;" 
d="M512 -128q-104 0 -199 40.5t-163.5 109t-109 163.5t-40.5 199t40.5 199t109 163.5t163.5 109t199 40.5t199 -40.5t163.5 -109t109 -163.5t40.5 -199t-40.5 -199t-109 -163.5t-163.5 -109t-199 -40.5zM512 811q-116 0 -214 -57.5t-155.5 -155.5t-57.5 -214t57.5 -214
t155.5 -155.5t214 -57.5t214 57.5t155.5 155.5t57.5 214t-57.5 214t-155.5 155.5t-214 57.5zM640 213q-15 0 -27 10l-128 107q-16 13 -16 33v149q0 18 12.5 30.5t30.5 12.5t30.5 -12.5t12.5 -30.5v-129l112 -94q14 -12 15.5 -29.5t-9.5 -30.5q-13 -16 -33 -16z" />
    <glyph glyph-name="piaowuxinxi" unicode="&#xe629;" 
d="M533 -128l-148 85l-136 -79h-11q-27 0 -51 11q-23 10 -40 27q-18 18 -28 41q-10 24 -10 50v761q0 26 10 50q10 23 28 40q17 18 41 28q23 10 50 10h590q27 0 50 -10q24 -10 41 -28q18 -17 28 -40q10 -24 10 -51v-760q0 -26 -10 -50q-10 -23 -28 -41q-17 -17 -41 -27
q-23 -11 -50 -11h-11l-136 79zM681 55l157 -91q4 1 7 3q8 3 14 9t9.5 14t3.5 17v761q0 9 -3.5 16.5t-9.5 13.5t-14 9.5t-17 3.5h-590q-10 0 -17.5 -3t-14 -9.5t-9.5 -14t-3 -17.5v-760q0 -9 3.5 -17t9.5 -14t13 -9q4 -2 8 -3l157 91l148 -85zM491 585h-170q-18 0 -30 12.5
t-12 30t12 30t30 12.5h170q17 0 29.5 -12.5t12.5 -30t-12.5 -30t-29.5 -12.5zM702 408h-381q-18 0 -30 12.5t-12 30t12 30t30 12.5h382q17 0 29.5 -12.5t12.5 -30t-12.5 -30t-30.5 -12.5z" />
    <glyph glyph-name="shanchu" unicode="&#xe62a;" 
d="M780 -107h-536q-48 0 -82 34.5t-34 82.5v715h768v-715q0 -48 -34 -82.5t-82 -34.5zM213 640v-630q0 -13 9.5 -22t21.5 -9h535q13 0 22.5 9t9.5 22v630h-598zM917 640h-810q-18 0 -30.5 12.5t-12.5 30t12.5 30t30.5 12.5h810q18 0 30.5 -12.5t12.5 -30t-12.5 -30
t-30.5 -12.5zM619 768h-214q-17 0 -29.5 12.5t-12.5 30t12.5 30t29.5 12.5h214q17 0 29.5 -12.5t12.5 -30t-12.5 -30t-29.5 -12.5zM405.5 171q-17.5 0 -30 12.5t-12.5 29.5v256q0 18 12.5 30.5t30 12.5t30 -12.5t12.5 -30.5v-256q0 -17 -12.5 -29.5t-30 -12.5zM618.5 171
q-17.5 0 -30 12.5t-12.5 29.5v256q0 18 12.5 30.5t30 12.5t30 -12.5t12.5 -30.5v-256q0 -17 -12.5 -29.5t-30 -12.5z" />
    <glyph glyph-name="tupian" unicode="&#xe62b;" 
d="M892 -43h-760q-55 0 -93.5 39t-38.5 93v590q0 54 38.5 93t93.5 39h760q55 0 93.5 -39t38.5 -93v-590q0 -54 -38.5 -93t-93.5 -39zM132 725q-19 0 -33 -13.5t-14 -32.5v-590q0 -19 14 -32.5t33 -13.5h760q19 0 33 13.5t14 32.5v590q0 19 -14 32.5t-33 13.5h-760zM43 64
q-23 0 -36 19q-10 14 -6.5 31.5t18.5 27.5l376 253q26 18 55 16t50 -23l101 -100h0.5h0.5l354 268q14 11 31.5 8.5t28 -16.5t8 -31.5t-16.5 -28.5l-354 -268q-26 -20 -56.5 -18.5t-52.5 22.5l-101 101v0l-376 -254q-11 -7 -24 -7zM235 576zM171 576q0 -26 18.5 -45t45 -19
t45.5 19t19 45t-19 45t-45.5 19t-45 -19t-18.5 -45z" />
    <glyph glyph-name="dianhuahaoma" unicode="&#xe62c;" 
d="M213.5 469q-70.5 0 -120.5 50t-50 121t50 121t120.5 50t120.5 -50t50 -121t-50 -121t-120.5 -50zM213.5 725q-35.5 0 -60.5 -25t-25 -60t25 -60t60.5 -25t60.5 25t25 60t-25 60t-60.5 25zM768 -85q-71 0 -121 50t-50 120.5t50 120.5t121 50t121 -50t50 -120.5t-50 -120.5
t-121 -50zM768 171q-35 0 -60 -25t-25 -60.5t25 -60.5t60 -25t60 25t25 60.5t-25 60.5t-60 25zM747 -85q-86 0 -203 70t-220.5 172.5t-183.5 227.5t-97 227q-3 17 7.5 31.5t28 17.5t32 -7.5t17.5 -27.5q14 -85 86 -196.5t165 -205t195.5 -159t172.5 -65.5q17 0 29.5 -12.5
t12.5 -30t-12.5 -30t-29.5 -12.5zM782 353q-24 0 -36 20q-92 144 -236 238q-15 10 -18.5 27t6 32t27 18.5t32.5 -5.5q159 -104 261 -265q9 -15 5.5 -32t-18.5 -27q-11 -6 -23 -6zM945 410q-24 0 -37 22q-125 215 -339 342q-15 9 -19 26t5 32.5t26 19.5t32 -5
q233 -138 369 -373q9 -15 4.5 -32t-19.5 -26q-10 -6 -22 -6z" />
    <glyph glyph-name="ditu" unicode="&#xe62d;" 
d="M363 -85q-7 0 -14 2l-261 87q-40 13 -64 47t-24 75v566q0 65 53.5 103.5t115.5 17.5l207 -69q13 -4 21 -15t8 -25v-747q0 -22 -17 -34q-12 -8 -25 -8zM128 735q-13 0 -25 -9q-18 -12 -18 -34v-566q0 -14 8.5 -25t21.5 -16l205 -68v656l-178 59q-7 3 -14 3zM896 -52
q-21 0 -41 7l-207 69q-13 4 -21 15t-8 25v747q0 22 17.5 34.5t38.5 5.5l261 -87q40 -13 64 -47t24 -75v-566q0 -65 -53 -104q-34 -24 -75 -24zM704 95l178 -59q21 -7 39 5.5t18 34.5v566q0 14 -8.5 25t-21.5 16l-205 68v-656zM363 -85q-14 0 -25 7q-18 13 -18 35v747
q0 13 8 24t20 16l299 107q21 7 39 -5.5t18 -34.5v-747q0 -13 -8 -24t-20 -16l-299 -107q-7 -2 -14 -2zM405 674v-656l214 76v656z" />
    <glyph glyph-name="suo" unicode="&#xe62e;" 
d="M829 -128h-634q-46 0 -78 32t-32 77v464q0 46 32 78t78 32h634q46 0 78 -32t32 -78v-464q0 -45 -32 -77t-78 -32zM195 469q-10 0 -17 -7t-7 -17v-464q0 -10 7 -17t17 -7h634q10 0 17 7t7 17v464q0 10 -7 17t-17 7h-634zM725.5 469q-17.5 0 -30 12.5t-12.5 30.5v128
q0 71 -50.5 121t-121 50t-120.5 -50t-50 -121v-128q0 -18 -12.5 -30.5t-30 -12.5t-30 12.5t-12.5 30.5v128q0 106 75 181t181 75t181 -75t75 -181v-128q0 -18 -12.5 -30.5t-30 -12.5zM512 85q-18 0 -30.5 12.5t-12.5 30.5v171q0 17 12.5 29.5t30.5 12.5t30.5 -12.5
t12.5 -29.5v-171q0 -18 -12.5 -30.5t-30.5 -12.5z" />
    <glyph glyph-name="caidan" unicode="&#xe62f;" 
d="M981 725h-661q-18 0 -30.5 12.5t-12.5 30.5t12.5 30.5t30.5 12.5h661q18 0 30.5 -12.5t12.5 -30.5t-12.5 -30.5t-30.5 -12.5zM981 -43h-661q-18 0 -30.5 12.5t-12.5 30.5t12.5 30.5t30.5 12.5h661q18 0 30.5 -12.5t12.5 -30.5t-12.5 -30.5t-30.5 -12.5zM981 341h-661
q-18 0 -30.5 12.5t-12.5 30.5t12.5 30.5t30.5 12.5h661q18 0 30.5 -12.5t12.5 -30.5t-12.5 -30.5t-30.5 -12.5zM107 768zM43 768q0 -26 18.5 -45t45 -19t45.5 19t19 45t-19 45t-45.5 19t-45 -19t-18.5 -45zM107 384zM43 384q0 -26 18.5 -45t45 -19t45.5 19t19 45t-19 45
t-45.5 19t-45 -19t-18.5 -45zM107 0zM43 0q0 -26 18.5 -45t45 -19t45.5 19t19 45t-19 45t-45.5 19t-45 -19t-18.5 -45z" />
    <glyph glyph-name="shuqian" unicode="&#xe630;" 
d="M809 -128h-594q-54 0 -92 38t-38 91v766q0 53 38 91t92 38h594q54 0 92 -38t38 -91v-766q0 -53 -38 -91t-92 -38zM215 811q-19 0 -31.5 -13t-12.5 -31v-766q0 -18 13 -31t31 -13h594q19 0 31.5 13t12.5 31v766q0 18 -13 31t-31 13h-594v0zM469 384q-9 0 -17 4
q-25 11 -25 39v426q0 18 12.5 30.5t30 12.5t30 -12.5t12.5 -30.5v-333l53 46q12 10 27.5 10t27.5 -9l63 -51v337q0 18 12.5 30.5t30 12.5t30 -12.5t12.5 -30.5v-426q0 -27 -24 -39t-45 5l-105 85l-97 -84q-12 -10 -28 -10z" />
    <glyph glyph-name="weizhi" unicode="&#xe631;" 
d="M524 -90l-19 9q-12 6 -29 15.5t-59 37.5t-80 59.5t-84 80t-78.5 100t-55 119.5t-22.5 138q0 116 57.5 214.5t155.5 155.5t214 57t214 -57t155.5 -155.5t57.5 -214.5q0 -70 -22.5 -138t-55 -119t-78.5 -100t-84 -80.5t-80.5 -59.5t-59 -37.5t-28.5 -15.5zM523.5 811
q-92.5 0 -171 -46t-124 -124.5t-45.5 -171.5q0 -70 29 -139.5t68.5 -118.5t92 -95.5t86 -69t65.5 -40.5q31 18 65 40.5t86.5 68.5t92 95.5t68.5 119t29 139.5q0 93 -45.5 171.5t-124.5 124.5t-171.5 46zM524 363q-53 0 -90.5 37.5t-37.5 90.5t37.5 90.5t90.5 37.5
t90.5 -37.5t37.5 -90.5t-37.5 -90.5t-90.5 -37.5zM524 533q-18 0 -30.5 -12.5t-12.5 -30t12.5 -30t30.5 -12.5t30.5 12.5t12.5 30t-12.5 30t-30.5 12.5z" />
    <glyph glyph-name="shezhi" unicode="&#xe632;" 
d="M512 -108l-427 246v492l427 247l427 -246v-493zM171 187l341 -197l341 197v394l-341 197l-341 -197v-394zM512 256q-48 0 -84 32q-40 35 -43.5 87.5t31.5 92.5t87.5 43.5t92.5 -31.5t43.5 -87.5t-31.5 -92.5t-88 -44h-8zM512 427h-3q-17 -2 -29 -15t-10.5 -30.5
t14.5 -29.5t30.5 -10.5t29.5 14.5t10.5 31t-14.5 29q-12 11 -28 11z" />
    <glyph glyph-name="fenxiang" unicode="&#xe633;" 
d="M811 -43h-593q-54 0 -92 38t-38 92v594q0 54 38 92t92 38h296q18 0 30.5 -12.5t12.5 -30.5t-12.5 -30.5t-30.5 -12.5h-296q-19 0 -32 -13t-13 -31v-594q0 -18 13 -31t32 -13h593q19 0 32 13t13 31v297q0 18 12.5 30.5t30 12.5t30 -12.5t12.5 -30.5v-297q0 -54 -38 -92
t-92 -38zM898.5 491q-17.5 0 -30 12.5t-12.5 29.5v150q0 18 -12.5 30t-30.5 12h-149q-18 0 -30.5 12.5t-12.5 30.5t12.5 30.5t30.5 12.5h149q53 0 90.5 -37.5t37.5 -90.5v-149q0 -18 -12.5 -30.5t-30 -12.5zM373.5 183q-17.5 0 -30 12.5t-12.5 30.5t12 30l508 508
q13 13 30.5 13t30 -13t12.5 -30.5t-12 -29.5l-508 -508q-13 -13 -30.5 -13z" />
  </font>
</defs>
</svg>
